<svg width="48" height="41" viewBox="0 0 48 41" fill="none" xmlns="http://www.w3.org/2000/svg">
<path d="M43.1916 1H5.10743C3.0041 1 1.29901 2.73412 1.29901 4.87328V35.8595C1.29901 37.9986 3.0041 39.7328 5.10743 39.7328H43.1916C45.2949 39.7328 47 37.9986 47 35.8595V4.87328C47 2.73412 45.2949 1 43.1916 1Z" stroke="white" stroke-width="2"/>
<path d="M12.7256 13.7617C14.8289 13.7617 16.534 12.0276 16.534 9.88841C16.534 7.74926 14.8289 6.01514 12.7256 6.01514C10.6223 6.01514 8.91718 7.74926 8.91718 9.88841C8.91718 12.0276 10.6223 13.7617 12.7256 13.7617Z" stroke="white" stroke-width="2"/>
<path d="M1.29901 28.113L16.5327 16.4932L27.9579 24.2397L35.5747 18.4298L47 28.113V35.8595C47 37.7962 45.0958 39.7328 43.1916 39.7328H5.10743C3.20322 39.7328 1.29901 37.7962 1.29901 35.8595V28.113Z" stroke="white" stroke-width="2" stroke-linejoin="round"/>
</svg>
